<svg width="26" height="35" viewBox="0 0 26 35" fill="none" xmlns="http://www.w3.org/2000/svg">
<path d="M16.7461 8.06123C16.3395 6.34815 14.7999 5.10129 13.0381 5.09045C11.2437 5.0796 9.67696 6.3102 9.25411 8.03955C8.86379 9.65505 9.56312 11.7693 11.802 12.615C9.41675 19.8956 7.03145 27.1762 4.62446 34.5055C4.74915 34.4459 4.81962 34.4134 4.8901 34.3754C7.50309 33.0039 10.1215 31.6323 12.7291 30.2554C12.9188 30.1524 13.0598 30.1578 13.2441 30.2554C15.8354 31.6161 18.4267 32.9714 21.018 34.3266C21.1156 34.3754 21.2186 34.4242 21.3758 34.5001C18.9688 27.1599 16.5781 19.8847 14.1928 12.6096C16.4317 11.7693 17.131 9.66047 16.7461 8.06123ZM10.5064 8.92319C10.5118 7.55164 11.6448 6.42947 13.0164 6.43489C14.3879 6.44031 15.5047 7.57333 15.4993 8.9503C15.4938 10.3273 14.3662 11.4386 12.9893 11.4332C11.6123 11.4278 10.501 10.3002 10.5064 8.92319ZM6.93929 31.7787C7.40008 30.3746 7.8392 29.0356 8.28915 27.6695C9.37338 28.2333 10.4305 28.7862 11.5364 29.3663C9.98597 30.1795 8.49516 30.9601 6.93929 31.7787ZM19.0664 31.7841C17.4888 30.9601 15.9926 30.1795 14.4421 29.3663C15.5535 28.7862 16.616 28.2279 17.7111 27.6478C18.161 29.0194 18.6002 30.3638 19.0664 31.7841ZM17.2828 26.3467C16.9359 26.5311 16.5998 26.7045 16.2636 26.8834C15.2336 27.4255 14.2036 27.9677 13.1682 28.5043C13.0814 28.5477 12.9351 28.5748 12.8538 28.5315C11.4985 27.8321 10.1486 27.122 8.79874 26.4172C8.77705 26.4064 8.75537 26.3847 8.71742 26.3522C10.1323 22.0369 11.5527 17.7109 12.9676 13.3902C12.9893 13.3902 13.011 13.3902 13.0326 13.3902C14.4476 17.7054 15.8625 22.0152 17.2828 26.3467Z" fill="#40BFFF"/>
<path d="M23.528 2.03293C22.9154 1.31192 22.2215 0.688487 21.4354 0.162637C21.1101 -0.0542089 20.709 0.0216871 20.4975 0.31985C20.2753 0.628855 20.3512 1.03544 20.6764 1.27397C20.7144 1.30108 20.7523 1.32276 20.7903 1.34987C25.6747 4.75434 25.9729 11.856 21.392 15.6617C21.3107 15.7321 21.2186 15.7972 21.1481 15.8785C20.9692 16.0899 20.9312 16.3339 21.0397 16.5887C21.1481 16.8381 21.3541 16.9899 21.6143 16.9465C21.8366 16.9085 22.0805 16.8381 22.2486 16.6971C24.6935 14.6154 25.9295 11.9645 26 9.13462C26 6.29937 25.1218 3.90322 23.528 2.03293Z" fill="#40BFFF"/>
<path d="M4.86841 16.7405C5.12863 16.4261 5.04189 16.052 4.70036 15.7213C4.18535 15.2226 3.63782 14.7401 3.20412 14.1709C0.260446 10.3164 0.900141 4.88445 4.63531 1.7944C4.87384 1.59924 5.12863 1.43118 5.36716 1.24144C5.60569 1.05712 5.68701 0.75896 5.58943 0.487903C5.49185 0.211424 5.23705 0.037948 4.92263 0C4.76541 0.0813171 4.59736 0.14095 4.45099 0.23853C-0.476829 3.67553 -1.29542 10.3164 1.90847 14.6804C2.47227 15.4502 3.11739 16.1387 3.83298 16.7676C4.19619 17.082 4.6082 17.0549 4.86841 16.7405Z" fill="#40BFFF"/>
<path d="M17.9659 3.54542C20.6548 5.42656 21.4788 8.95572 19.885 11.8127C19.5055 12.4903 19.0122 13.0704 18.4158 13.5691C18.1936 13.7534 18.1068 13.992 18.1773 14.2684C18.2424 14.5232 18.4158 14.6913 18.6706 14.7563C18.9308 14.8214 19.1423 14.7238 19.3429 14.5558C21.1156 13.0162 21.9938 11.0591 22.0426 8.89609C22.0263 7.3619 21.6902 6.08252 21.0071 4.90071C20.4054 3.87069 19.6085 3.01957 18.611 2.36361C18.3508 2.19014 18.0526 2.20098 17.8249 2.36904C17.5918 2.54251 17.478 2.79188 17.5756 3.05752C17.6406 3.24726 17.7978 3.43158 17.9659 3.54542Z" fill="#40BFFF"/>
<path d="M6.64656 14.5449C7.00435 14.8593 7.41094 14.8539 7.67657 14.5503C7.94221 14.2467 7.888 13.8402 7.53562 13.5312C7.50852 13.5095 7.48141 13.4824 7.4543 13.4607C4.39136 10.7501 4.65158 5.96325 7.98016 3.59421C8.06147 3.53458 8.14821 3.48579 8.22411 3.42073C8.44637 3.23099 8.51685 2.92199 8.403 2.65635C8.29458 2.39614 8.04521 2.21182 7.76331 2.25519C7.58441 2.28229 7.40009 2.36361 7.2483 2.46661C5.10153 4.00622 4.03357 6.10962 3.95225 8.6684C4.01188 11.0645 4.88469 13.0107 6.64656 14.5449Z" fill="#40BFFF"/>
</svg>
