<svg width="27" height="27" viewBox="0 0 27 27" fill="none" xmlns="http://www.w3.org/2000/svg">
<g clip-path="url(#clip0_238:343)">
<path d="M27 3.15584C26.6494 4.90909 25.7727 6.31168 24.7208 7.71428C24.1948 8.41558 23.4935 9.11688 22.9675 9.81818C20.1623 12.974 17.0065 15.6039 13.6753 18.2338C13.3247 18.5844 12.974 18.7597 12.6234 19.1104C12.6234 19.1104 12.4481 19.2857 12.4481 19.461C12.7987 21.7403 11.5714 24.7208 8.59091 26.1234C7.53896 26.6493 6.31169 26.8247 5.25974 27H5.08442C4.55844 27 4.03247 27 3.68182 27H3.50649C2.62987 27 1.75325 26.6493 0.876623 26.474C0.350649 26.2987 0.175325 26.1234 0 25.7727C0 25.5974 0 25.4221 0 25.4221C0.175325 25.2467 0.350649 25.0714 0.350649 24.8961C0.876623 24.1948 1.22727 23.3182 1.22727 22.4416C1.4026 21.5649 1.4026 20.513 1.57792 19.6364C2.1039 17.3571 4.03247 15.6039 6.31169 15.4286C6.83766 15.4286 7.36364 15.4286 7.71429 15.4286C7.88961 15.4286 8.06493 15.4286 8.06493 15.2532C9.29221 13.6753 10.5195 12.0974 11.7468 10.5195C13.6753 8.06493 15.7792 5.78571 18.0584 3.68181C19.2857 2.62987 20.3377 1.57792 21.9156 1.05194C22.4416 0.87662 23.1429 0.701295 23.6688 0.52597C24.0195 0.52597 24.1948 0.52597 24.5455 0.52597H24.7208C25.7727 0.701295 26.474 1.40259 26.8247 2.45454C26.8247 2.62987 26.8247 2.80519 27 2.98052C27 2.62987 27 2.98052 27 3.15584ZM15.2532 14.9026C15.2532 14.9026 15.4286 14.7273 15.2532 14.9026C17.1818 13.3247 19.1104 11.5714 20.6883 9.81818C21.9156 8.59091 23.1429 7.18831 24.1948 5.61039C24.7208 4.90909 25.0714 4.03246 25.2468 3.15584C25.4221 2.10389 24.7208 1.40259 23.6688 1.57792C23.1429 1.75324 22.7922 1.92857 22.2662 2.10389C21.039 2.80519 19.987 3.68181 18.9351 4.55844C17.0065 6.48701 15.0779 8.76623 13.1494 11.0455C12.974 11.3961 12.6234 11.7467 12.4481 11.9221C13.5 12.974 14.3766 13.8506 15.2532 14.9026ZM2.1039 25.0714C2.1039 25.0714 2.27922 25.0714 2.1039 25.0714C2.27922 25.0714 2.27922 25.0714 2.45455 25.0714C4.20779 25.4221 6.13636 25.2467 7.88961 24.5455C9.64286 23.8442 10.6948 22.6169 11.0455 20.6883C11.3961 18.7597 10.1688 17.0065 8.24026 16.6558C5.96104 16.3052 3.85714 17.5325 3.33117 19.6364C3.15584 20.1623 3.15584 20.8636 3.15584 21.5649C2.98052 22.7922 2.80519 24.0195 2.1039 25.0714ZM11.3961 13.3247C10.8701 14.026 10.3442 14.9026 9.64286 15.6039C10.5195 16.1299 11.2208 16.8312 11.7468 17.7078C12.4481 17.0065 13.3247 16.4805 14.026 15.9545C13.1494 15.0779 12.2727 14.2013 11.3961 13.3247Z" fill="#40BFFF"/>
</g>
<defs>
<clipPath id="clip0_238:343">
<rect width="27" height="27" fill="white"/>
</clipPath>
</defs>
</svg>
