<svg width="26" height="26" viewBox="0 0 26 26" fill="none" xmlns="http://www.w3.org/2000/svg">
<path d="M26 13.26C25.74 13.78 25.48 13.91 24.96 13.91C24.18 13.91 23.4 13.91 22.49 13.91C21.97 13.91 21.71 13.65 21.58 13.13C21.45 12.74 21.71 12.35 21.97 12.09C22.1 11.96 22.23 11.96 22.49 11.96C23.4 11.96 24.18 11.96 25.09 11.96C25.61 11.96 25.87 12.22 26 12.61C26 12.87 26 13.13 26 13.26Z" fill="#40BFFF"/>
<path d="M12.74 26C12.22 25.74 12.09 25.48 12.09 24.96C12.09 24.18 12.09 23.4 12.09 22.49C12.09 21.97 12.35 21.71 12.87 21.58C13.26 21.45 13.65 21.71 13.91 21.97C14.04 22.1 14.04 22.23 14.04 22.49C14.04 23.4 14.04 24.18 14.04 25.09C14.04 25.61 13.78 25.87 13.39 26C13.13 26 12.87 26 12.74 26Z" fill="#40BFFF"/>
<path d="M19.63 13C19.63 16.64 16.64 19.63 13.13 19.63C9.49 19.63 6.5 16.64 6.5 13.13C6.5 9.61999 9.49 6.62999 13 6.62999C16.51 6.49999 19.5 9.35999 19.63 13ZM17.68 13C17.68 10.4 15.6 8.31999 13 8.31999C10.4 8.31999 8.32 10.4 8.32 13C8.32 15.6 10.4 17.68 13 17.68C15.6 17.68 17.68 15.6 17.68 13Z" fill="#40BFFF"/>
<path d="M2.21 12.09C2.6 12.09 2.99 12.09 3.51 12.09C4.03 12.09 4.55 12.48 4.55 13C4.55 13.52 4.16 13.91 3.51 13.91C2.73 13.91 1.82 13.91 1.04 13.91C0.39 13.91 0 13.52 0 13C0 12.48 0.39 12.09 1.04 12.09C1.43 12.09 1.82 12.09 2.21 12.09Z" fill="#40BFFF"/>
<path d="M13.91 2.21C13.91 2.6 13.91 3.12 13.91 3.51C13.91 4.03 13.52 4.55 13 4.55C12.48 4.55 12.09 4.16 12.09 3.51C12.09 2.73 12.09 1.82 12.09 1.04C12.09 0.39 12.48 0 13 0C13.52 0 13.91 0.39 13.91 1.04C13.91 1.43 13.91 1.82 13.91 2.21Z" fill="#40BFFF"/>
<path d="M19.63 7.28C19.24 7.28 18.98 7.15 18.85 6.76C18.72 6.37 18.72 6.11 18.98 5.72C19.24 5.46 19.63 5.07 19.89 4.81C20.28 4.42 20.54 4.16 20.93 3.77C21.45 3.25 22.36 3.51 22.49 4.29C22.49 4.55 22.49 4.81 22.23 5.07C21.58 5.72 20.93 6.37 20.41 6.89C20.15 7.15 19.89 7.28 19.63 7.28Z" fill="#40BFFF"/>
<path d="M4.42 22.49C4.03 22.49 3.77 22.36 3.64 21.97C3.51 21.58 3.51 21.32 3.77 21.06C4.42 20.41 5.07 19.63 5.85 18.98C6.24 18.72 6.76 18.72 7.02 18.98C7.41 19.37 7.41 19.89 7.15 20.15C6.5 20.8 5.85 21.58 5.07 22.23C4.81 22.36 4.68 22.49 4.42 22.49Z" fill="#40BFFF"/>
<path d="M6.36999 7.28C5.97999 7.28 5.84999 7.15 5.58999 7.02C4.93999 6.37 4.28999 5.85 3.76999 5.2C3.37999 4.81 3.37999 4.29 3.76999 3.9C4.15999 3.51 4.67999 3.51 5.06999 3.9C5.71999 4.55 6.36999 5.2 7.01999 5.85C7.27999 6.11 7.27999 6.5 7.14999 6.89C7.01999 7.02 6.62999 7.28 6.36999 7.28Z" fill="#40BFFF"/>
<path d="M22.49 21.71C22.49 21.97 22.36 22.23 21.97 22.49C21.58 22.62 21.32 22.62 21.06 22.36C20.41 21.71 19.63 21.06 18.98 20.28C18.72 19.89 18.72 19.37 19.11 19.11C19.5 18.72 20.02 18.72 20.28 19.11C20.93 19.76 21.58 20.41 22.23 21.06C22.36 21.19 22.49 21.32 22.49 21.71Z" fill="#40BFFF"/>
</svg>
