<svg width="28" height="23" viewBox="0 0 28 23" fill="none" xmlns="http://www.w3.org/2000/svg">
<path d="M27.6273 5.90185C27.313 5.57385 26.9918 5.24585 26.657 4.94518C21.9146 0.701659 16.4001 -0.794848 10.1749 0.394158C6.62836 1.06383 3.58752 2.7585 0.990838 5.25951C0.621836 5.62168 0.198168 5.95652 0 6.46902C0 6.63302 0 6.79702 0 6.96102C0.0205001 7.00202 0.0478335 7.03619 0.0615003 7.07719C0.389502 7.86302 1.27784 8.04752 1.89284 7.45986C2.06368 7.29585 2.22768 7.11819 2.39168 6.95419C3.66952 5.69001 5.11136 4.64451 6.73086 3.85867C9.67604 2.42367 12.7784 1.92483 16.0242 2.3075C18.0264 2.54667 19.9124 3.13434 21.6959 4.07734C23.3428 4.95201 24.7914 6.08635 26.083 7.43252C26.5476 7.91769 27.2241 7.92452 27.6683 7.49402C28.1056 7.04302 28.0988 6.38702 27.6273 5.90185Z" fill="#40BFFF"/>
<path d="M14.0016 6.33237C12.2249 6.32553 10.5302 6.68087 8.89705 7.36421C7.16821 8.08854 5.65804 9.13405 4.3392 10.4529C4.05903 10.7399 3.9292 11.0816 4.01803 11.4711C4.20253 12.2911 5.1592 12.6054 5.80154 12.0587C6.38237 11.5736 6.91538 11.0269 7.53721 10.6101C11.2204 8.12271 15.0812 7.80838 19.0924 9.77638C20.2404 10.3367 21.2244 11.1294 22.1401 12.0177C22.5979 12.4619 23.2676 12.4346 23.6845 12.0041C24.1081 11.5667 24.1081 10.9039 23.6571 10.4597C20.9853 7.81521 17.7873 6.38704 14.0016 6.33237Z" fill="#40BFFF"/>
<path d="M13.9332 12.7215C11.8559 12.783 10.086 13.5825 8.5827 15.0176C8.3162 15.2704 8.2137 15.5984 8.2752 15.9674C8.43237 16.8079 9.38221 17.1496 10.0519 16.6166C10.4619 16.2886 10.865 15.9332 11.316 15.6736C12.6076 14.9151 13.9811 14.6896 15.4366 15.1611C16.3454 15.4549 17.1176 15.9674 17.8214 16.6097C18.2792 17.0197 18.9421 16.9582 19.3384 16.5141C19.7279 16.0836 19.7211 15.4276 19.2838 15.0107C17.8009 13.5825 16.0311 12.783 13.9332 12.7215Z" fill="#40BFFF"/>
<path d="M13.8991 19.4046C12.8946 19.4387 12.1019 20.2656 12.1361 21.2564C12.1771 22.2473 12.9971 23.0331 13.9742 22.9989C14.9787 22.9648 15.7714 22.1379 15.7372 21.1471C15.7031 20.1563 14.8762 19.3704 13.8991 19.4046Z" fill="#40BFFF"/>
</svg>
