<svg width="26" height="26" viewBox="0 0 26 26" fill="none" xmlns="http://www.w3.org/2000/svg">
<g clip-path="url(#clip0_238:328)">
<path d="M0 23.1783C0 16.3256 0 9.57364 0 2.82171C0.100775 2.4186 0.20155 2.0155 0.403101 1.71318C0.906977 0.705426 1.71318 0.20155 2.82171 0C9.57364 0 16.3256 0 23.1783 0C23.2791 0 23.2791 0 23.3798 0.100775C24.9922 0.503876 26 1.81395 26 3.42636C26 9.87597 26 16.3256 26 22.7752C26 24.4884 24.4884 26 22.7752 26C16.3256 26 9.77519 26 3.32558 26C2.72093 26 2.21705 25.7984 1.71318 25.5969C0.705426 24.9922 0.20155 24.186 0 23.1783ZM24.3876 14.1085C24.3876 13.907 24.3876 13.907 24.3876 13.8062C24.3876 10.3798 24.3876 6.95349 24.3876 3.52713C24.3876 3.32558 24.3876 3.12403 24.2868 2.92248C24.0853 2.11628 23.3798 1.6124 22.4729 1.6124C16.124 1.6124 9.77519 1.6124 3.32558 1.6124C3.12403 1.6124 2.92248 1.6124 2.82171 1.71318C2.0155 1.81395 1.6124 2.51938 1.6124 3.42636C1.6124 8.06201 1.6124 12.7984 1.6124 17.4341C1.6124 17.5349 1.6124 17.6357 1.6124 17.6357C1.71318 17.6357 1.71318 17.5349 1.81395 17.5349C3.02326 16.5271 4.23256 15.5194 5.44186 14.5116C6.34884 13.7054 7.35659 13.7054 8.36434 14.5116C9.06977 15.1163 9.77519 15.7209 10.5814 16.3256C10.8837 16.5271 10.8837 16.5271 11.0853 16.3256C13.3023 14.1085 15.4186 11.9922 17.6357 9.77519C17.8372 9.37209 18.1395 9.17054 18.5426 9.06977C19.4496 8.76744 20.2558 9.06977 20.8605 9.77519C21.5659 10.6822 22.2713 11.4884 22.9767 12.3953C23.3798 12.8992 23.8837 13.5039 24.3876 14.1085ZM13 24.3876C16.124 24.3876 19.2481 24.3876 22.3721 24.3876C22.5736 24.3876 22.876 24.3876 23.0775 24.2868C23.8837 24.0853 24.3876 23.3798 24.3876 22.4729C24.3876 20.5581 24.3876 18.7442 24.3876 16.8295C24.3876 16.6279 24.2868 16.4264 24.186 16.3256C23.2791 15.2171 22.3721 14.1085 21.4651 13C20.8605 12.2946 20.2558 11.4884 19.6512 10.7829C19.3488 10.3798 19.0465 10.3798 18.7442 10.7829C18.6434 10.8837 18.6434 10.8837 18.5426 10.9845C16.2248 13.3023 13.907 15.6202 11.5891 18.0388C11.0853 18.5426 10.6822 18.6434 10.0775 18.1395C9.17054 17.3333 8.16279 16.5271 7.25581 15.8217C6.95349 15.5194 6.75194 15.5194 6.44961 15.8217C4.83721 17.1318 3.32558 18.5426 1.71318 19.8527C1.6124 19.9535 1.51163 20.0543 1.51163 20.155C1.51163 21.062 1.51163 21.969 1.51163 22.876C1.51163 23.2791 1.6124 23.5814 1.91473 23.8837C2.31783 24.3876 2.82171 24.4884 3.42636 24.4884C6.65116 24.3876 9.87597 24.3876 13 24.3876Z" fill="#40BFFF"/>
<path d="M8.16278 3.12404C10.1783 3.12404 11.8915 4.73644 11.8915 6.85272C11.8915 8.86822 10.1783 10.5814 8.16278 10.5814C6.14728 10.5814 4.4341 8.86822 4.4341 6.85272C4.4341 4.83722 6.14728 3.12404 8.16278 3.12404ZM8.16278 4.73644C6.95348 4.73644 6.0465 5.74419 6.0465 6.95349C6.0465 8.06202 7.05426 8.969 8.16278 8.969C9.37209 8.969 10.2791 7.96125 10.2791 6.85272C10.2791 5.64342 9.37209 4.73644 8.16278 4.73644Z" fill="#40BFFF"/>
</g>
<defs>
<clipPath id="clip0_238:328">
<rect width="25.8" height="25.8" fill="white" transform="scale(1.00775)"/>
</clipPath>
</defs>
</svg>
