<svg width="26" height="28" viewBox="0 0 26 28" fill="none" xmlns="http://www.w3.org/2000/svg">
<g clip-path="url(#clip0_238:350)">
<path d="M12.4935 28C11.8182 27.8353 11.1429 27.5059 10.8052 27.0118C10.1299 26.3529 9.79221 25.3647 9.96104 24.3765C9.96104 24.2118 9.96104 24.0471 9.62338 24.0471C7.42857 24.0471 5.23377 24.0471 3.03896 24.0471C1.35065 24.0471 0 22.7294 0 20.9176C0 19.4353 1.35065 18.2824 2.87013 18.1176C3.54546 18.1176 3.71429 17.7882 3.71429 17.1294C3.71429 15.4824 3.71429 13.8353 3.71429 12.1882C3.71429 9.55294 4.72727 7.41176 6.58442 5.6C7.5974 4.94117 8.61039 4.28235 9.96104 3.95294C10.1299 3.78823 10.1299 3.78823 10.1299 3.62353C9.79221 1.97647 10.8052 0.32941 12.3247 -2.11596e-06C13.8442 -0.329414 15.5325 0.658821 15.8701 2.30588C16.039 2.8 16.039 3.12941 15.8701 3.62353C15.8701 3.78823 15.8701 3.95294 16.039 3.95294C18.2338 4.77647 19.9221 6.09412 21.1039 8.23529C21.7792 9.38823 22.1169 10.5412 22.1169 11.8588C22.2857 13.6706 22.1169 15.6471 22.1169 17.4588C22.1169 18.1176 22.2857 18.2824 22.961 18.4471C24.1429 18.4471 24.987 19.1059 25.4935 20.0941C26 21.0824 25.8312 22.2353 25.1558 23.0588C24.6494 23.8824 23.8052 24.2118 22.7922 24.2118C20.5974 24.2118 18.4026 24.2118 16.2078 24.2118C16.039 24.2118 15.8701 24.2118 15.8701 24.5412C16.2078 26.1882 15.026 27.6706 13.5065 28H13.3377C13.1688 28 12.8312 28 12.4935 28ZM13 22.4C16.2078 22.4 19.2468 22.4 22.4545 22.4C22.6234 22.4 22.7922 22.4 22.961 22.4C23.4675 22.4 23.974 22.2353 24.1429 21.5765C24.4805 20.7529 23.974 19.9294 22.961 19.9294C21.6104 19.7647 20.5974 18.7765 20.5974 17.4588C20.5974 15.8118 20.5974 14.1647 20.5974 12.5176C20.5974 11.2 20.2597 9.88235 19.5844 8.72941C17.7273 5.27059 13 3.95294 9.45455 5.92941C6.75325 7.41176 5.57143 9.71764 5.4026 12.5176C5.4026 14.1647 5.4026 15.8118 5.4026 17.6235C5.4026 18.7765 4.55844 19.6 3.54545 19.9294C3.20779 19.9294 3.03896 19.9294 2.7013 20.0941C2.19481 20.0941 1.68831 20.5882 1.68831 21.2471C1.68831 21.9059 2.19481 22.4 2.7013 22.4C2.87013 22.4 3.03896 22.4 3.20779 22.4C6.58442 22.4 9.79221 22.4 13 22.4ZM13 24.2118C12.6623 24.2118 12.3247 24.2118 11.987 24.2118C11.8182 24.2118 11.8182 24.2118 11.6494 24.3765C11.3117 24.8706 11.4805 25.6941 11.987 26.0235C12.4935 26.5176 13.3377 26.5176 13.8442 26.0235C14.3507 25.6941 14.5195 24.8706 14.3507 24.3765C14.3507 24.2118 14.1818 24.2118 14.013 24.2118C13.6753 24.2118 13.3377 24.2118 13 24.2118ZM13 1.64706C12.1558 1.64706 11.6494 2.47059 11.8182 3.12941C11.8182 3.29412 11.987 3.45882 12.1558 3.45882C12.6623 3.45882 13.1688 3.45882 13.8442 3.45882C14.013 3.45882 14.1818 3.45882 14.1818 3.12941C14.3507 2.47059 13.8442 1.64706 13 1.64706Z" fill="#40BFFF"/>
</g>
<defs>
<clipPath id="clip0_238:350">
<rect width="26" height="28" fill="white"/>
</clipPath>
</defs>
</svg>
