<svg width="28" height="28" viewBox="0 0 28 28" fill="none" xmlns="http://www.w3.org/2000/svg">
<path d="M28 16.9499C27.7437 17.7212 27.5728 18.4925 27.2311 19.1781C26.4621 21.1492 25.266 22.8631 23.6427 24.32C21.934 25.7769 20.0544 26.891 17.9185 27.4909C16.3806 27.9194 14.7573 28.0908 13.134 27.9194C9.71653 27.6623 6.72624 26.2911 4.24857 23.8915C2.11265 21.7491 0.745661 19.1781 0.23304 16.2643C-0.279581 13.4363 0.0621661 10.7796 1.17284 8.12294C2.11265 5.89476 3.65051 4.00939 5.61556 2.46681C7.06798 1.35272 8.60585 0.581434 10.4 0.0672402C10.9126 -0.104158 11.3398 0.0672402 11.5107 0.410036C11.767 0.752831 11.767 1.18133 11.4253 1.60982C10.1437 3.1524 9.46022 5.03778 9.28934 7.00885C9.03303 9.23702 9.54565 11.3795 10.6563 13.3506C11.767 15.4073 13.4757 16.8642 15.6117 17.8069C17.4058 18.5782 19.2855 18.8353 21.1651 18.5782C23.1301 18.3211 24.8388 17.5498 26.3767 16.35C26.5476 16.1786 26.8039 16.0929 26.9748 16.0072C27.4019 15.9215 27.7437 16.0929 28 16.6928C28 16.6928 28 16.8642 28 16.9499ZM8.52041 2.8953C4.33401 5.03778 1.25828 10.0083 2.11265 15.6644C2.96702 21.2349 7.5806 25.5198 13.2194 26.034C18.602 26.4625 23.2155 23.3773 25.266 19.2638C20.1398 21.4063 15.2699 20.9778 11.169 16.9499C7.15342 13.0078 6.55536 8.20864 8.52041 2.8953Z" fill="#40BFFF"/>
</svg>
